<svg width="24" height="24" viewBox="0 0 24 24" fill="none" xmlns="http://www.w3.org/2000/svg">
<path d="M9.38721 6.67285C9.48803 6.67285 9.56501 6.70326 9.64307 6.78125L14.5874 11.7256C14.6413 11.7795 14.6665 11.8215 14.6782 11.8496V11.8506C14.693 11.8861 14.7017 11.9259 14.7017 11.9746C14.7017 12.0233 14.693 12.0631 14.6782 12.0986V12.0996C14.6665 12.1277 14.6413 12.1697 14.5874 12.2236L9.61865 17.1924C9.54088 17.2702 9.47374 17.292 9.39307 17.2891C9.29904 17.2856 9.21818 17.2537 9.13232 17.168C9.0542 17.0898 9.02295 17.013 9.02295 16.9121C9.02295 16.8112 9.0542 16.7344 9.13232 16.6562L13.814 11.9746L9.10693 7.26758C9.02927 7.18988 9.00733 7.12357 9.01025 7.04297C9.0137 6.9487 9.04627 6.86731 9.13232 6.78125C9.21025 6.70344 9.28662 6.67293 9.38721 6.67285Z" fill="white" stroke="white"/>
</svg>
