<svg width="66" height="40" viewBox="0 0 66 40" fill="none" xmlns="http://www.w3.org/2000/svg">
<path d="M46.7092 28.6055L46.1934 26.6374C48.8757 25.9123 51.4548 25.0836 53.7244 24.1514L54.4466 26.1195C51.9706 26.9482 49.3915 27.7768 46.7092 28.6055Z" fill="black"/>
<path d="M30.4096 31.8168H30.2033C29.5843 31.8168 29.1716 31.4025 29.1716 30.781C29.1716 30.1595 29.5843 29.7451 30.2033 29.7451H30.4096C31.0286 29.7451 31.4413 30.1595 31.4413 30.781C31.4413 31.4025 31.0286 31.8168 30.4096 31.8168Z" fill="black"/>
<path d="M51.5586 4.98845H51.4555C49.8048 4.78128 48.3605 4.6777 47.0193 4.78128C46.5035 4.88487 45.9877 4.36694 45.8845 3.84902C45.8845 3.22751 46.2972 2.81317 46.813 2.70958C48.2573 2.606 49.8048 2.70958 51.6618 2.91675C52.1776 3.02034 52.5903 3.53826 52.5903 4.05619C52.4871 4.57411 52.0744 4.98845 51.5586 4.98845Z" fill="black"/>
<path d="M55.1688 28.6055C54.653 28.6055 54.2404 28.1911 54.1372 27.7768L50.3201 2.60561C50.3201 2.29485 50.3201 2.08768 50.5264 1.88051C50.7327 1.67334 50.9391 1.46617 51.2486 1.46617L60.9461 0.0159792C61.4619 -0.0876059 62.0809 0.326734 62.0809 0.844659L66.0012 25.9123C66.0012 26.223 66.0012 26.4302 65.7949 26.6374C65.5886 26.8445 65.3822 27.0517 65.0727 27.0517L55.272 28.5019C55.272 28.6055 55.1688 28.6055 55.1688 28.6055ZM52.4865 3.22712L55.9942 26.3266L63.7316 25.1872L60.1208 2.08768L52.4865 3.22712Z" fill="black"/>
<path d="M24.8382 35.8568C19.68 33.3707 14.8312 30.4703 9.98242 26.8449L11.2204 25.1875C15.966 28.7094 20.7116 31.6098 25.6636 33.9922L24.8382 35.8568Z" fill="black"/>
<path d="M45.7813 25.7053C45.2654 25.7053 44.7496 25.6017 44.2338 25.3945C44.1306 25.3945 44.0274 25.2909 43.9243 25.2909C43.5116 25.1873 43.099 24.773 43.099 24.2551C43.099 23.6336 43.5116 23.2192 44.1306 23.2192C44.3369 23.2192 44.5433 23.3228 44.6464 23.3228H44.7496C45.8844 23.7371 47.1224 23.4264 47.5351 22.5977C47.6382 22.287 47.6382 22.0798 47.6382 21.9762C47.6382 21.1475 47.0192 20.2153 46.0908 19.8009L34.4331 14.5181C34.0204 14.4145 33.8141 13.793 34.0204 13.275C34.2267 12.7571 34.8457 12.55 35.3615 12.7571L47.0192 18.04C48.6699 18.8686 49.8047 20.4224 49.8047 22.0798C49.8047 22.5977 49.5984 23.1156 49.4952 23.4264V23.53C48.8762 24.8766 47.3287 25.7053 45.7813 25.7053Z" fill="black"/>
<path d="M43.5113 30.8842C42.8924 30.8842 42.2734 30.7806 41.7575 30.5734C41.2417 30.4698 40.829 30.0555 40.829 29.5376C40.829 28.9161 41.2417 28.5017 41.8607 28.5017H41.9639C42.067 28.5017 42.2734 28.5017 42.3765 28.6053C42.9955 28.9161 43.8208 28.9161 44.4398 28.7089C44.7493 28.6053 45.0588 28.3981 45.2652 27.8802C45.3683 27.673 45.3683 27.5695 45.3683 27.4659V27.2587C45.3683 26.5336 44.8525 25.7049 44.0272 25.2906C44.0272 25.2906 43.924 25.2906 43.924 25.187C43.924 25.187 43.924 25.187 43.8208 25.187L34.4328 20.94C33.917 20.7328 33.7106 20.1113 33.917 19.5934C34.1233 19.0755 34.7423 18.8683 35.2581 19.0755L44.543 23.3225C44.7493 23.3225 44.8525 23.4261 44.9557 23.5296C46.5031 24.3583 47.3285 25.8085 47.3285 27.2587V27.4659C47.3285 28.0874 47.1221 28.5017 47.019 28.7089C46.7095 29.5376 45.9873 30.1591 45.0588 30.5734C44.6462 30.7806 44.0272 30.8842 43.5113 30.8842Z" fill="black"/>
<path d="M40.2095 35.6489C39.0747 35.6489 38.1462 35.4417 37.5272 35.131L35.3607 34.1987C35.2575 34.1987 35.1544 34.1987 35.0512 34.0951L27.9328 30.884C27.417 30.6768 27.2106 30.0553 27.417 29.5374C27.6233 29.0195 28.2423 28.8123 28.7581 29.0195L35.7734 32.127C35.8765 32.127 35.9797 32.127 35.9797 32.2306L38.3525 33.2664C38.662 33.4736 39.1778 33.5772 40.2095 33.5772C41.2411 33.5772 41.9633 33.2664 42.1696 32.8521C42.5823 32.127 42.1696 31.0912 41.2411 30.3661L41.138 30.2625C41.0348 30.1589 41.0348 30.1589 40.8285 30.0553C40.8285 30.0553 40.7253 30.0553 40.7253 29.9517L40.1063 29.641L31.1309 25.6011C30.6151 25.394 30.4088 24.7725 30.6151 24.2545C30.8214 23.7366 31.4404 23.5294 31.9562 23.7366L41.5506 28.0872C41.8601 28.1908 42.1696 28.3979 42.5823 28.7087C44.2329 29.9517 44.8519 32.127 44.0266 33.6808C43.5108 34.9238 42.0665 35.6489 40.2095 35.6489Z" fill="black"/>
<path d="M34.6394 40.0001C33.9172 40.0001 33.2983 39.8965 32.5761 39.5857L24.7355 35.7531C24.2197 35.5459 24.0134 34.9244 24.2197 34.4065C24.426 33.8885 25.045 33.6814 25.5608 33.8885L33.4014 37.6176C34.5362 38.1355 35.8774 37.8248 36.3932 36.8925C36.4964 36.6853 36.4964 36.4782 36.4964 36.271C36.4964 35.4423 35.9806 34.6136 35.0521 34.1993C34.9489 34.1993 34.8457 34.1993 34.7426 34.0957L27.8305 30.781C27.3147 30.5738 27.1083 29.9523 27.4178 29.4344C27.7273 28.9164 28.2431 28.7093 28.759 29.02L30.616 29.9523L35.4647 32.2312C35.5679 32.2312 35.6711 32.2312 35.7742 32.3348C37.4249 33.1634 38.5597 34.7172 38.5597 36.3746C38.5597 36.9961 38.4565 37.4104 38.2502 37.7212C38.2502 37.7212 38.2502 37.8248 38.147 37.8248C37.6312 39.1714 36.1869 40.0001 34.6394 40.0001Z" fill="black"/>
<path d="M24.117 8.71714C24.0138 8.71714 23.9106 8.71714 23.8075 8.61355C21.8473 7.88846 20.1967 7.47412 18.6492 7.37053C18.1334 7.26695 17.7207 6.74902 17.7207 6.23109C17.8239 5.71317 18.3397 5.29883 18.8555 5.29883C20.5062 5.506 22.3631 5.92034 24.4265 6.74902C24.9423 6.95619 25.2518 7.5777 25.0454 8.09563C24.9423 8.40638 24.5296 8.71714 24.117 8.71714Z" fill="black"/>
<path d="M9.67345 29.3307C9.57029 29.3307 9.36396 29.3307 9.26079 29.2271L0.594894 25.2909C0.0790667 25.0837 -0.127264 24.4622 0.0790667 23.9443L9.98295 0.637607C10.0861 0.430436 10.2924 0.223266 10.6019 0.119681C10.8083 0.0160959 11.1178 0.0160959 11.4273 0.119681L19.99 3.95233C20.5058 4.1595 20.7122 4.78101 20.5058 5.29894L10.7051 28.7092C10.6019 28.9163 10.3956 29.1235 10.0861 29.2271C9.87978 29.3307 9.77662 29.3307 9.67345 29.3307ZM2.34871 23.8407L9.15763 26.9482L18.133 5.40252L11.4273 2.39855L2.34871 23.8407Z" fill="black"/>
<path d="M45.7816 25.705C45.2658 25.705 44.75 25.6015 44.2341 25.3943C44.131 25.3943 44.0278 25.2907 43.9246 25.2907C43.512 25.1871 43.0993 24.7728 43.0993 24.2548C43.0993 23.6333 43.512 23.219 44.131 23.219C44.3373 23.219 44.5436 23.3226 44.6468 23.3226H44.75C45.8848 23.7369 47.1228 23.4262 47.5354 22.5975C47.6386 22.2867 47.6386 22.0796 47.6386 21.976C47.6386 21.1473 47.0196 20.215 46.0911 19.8007L34.4334 14.5178C34.3302 14.5178 34.2271 14.4143 34.1239 14.3107L31.2353 11.5139C30.8226 11.0995 30.8226 10.478 31.2353 10.0637C31.6479 9.64934 32.2669 9.64934 32.6796 10.0637L35.4651 12.7569L46.9164 17.9362C48.5671 18.7648 49.7019 20.3186 49.7019 21.976C49.7019 22.4939 49.4956 23.0118 49.3924 23.3226V23.4262C48.8766 24.8764 47.3291 25.705 45.7816 25.705Z" fill="black"/>
<path d="M43.5113 30.8842C42.8924 30.8842 42.2734 30.7806 41.7575 30.5734C41.2417 30.4698 40.829 30.0555 40.829 29.5376C40.829 28.9161 41.2417 28.5017 41.8607 28.5017H41.9639C42.067 28.5017 42.2734 28.5017 42.3765 28.6053C42.9955 28.9161 43.8208 28.9161 44.4398 28.7089C44.7493 28.6053 45.0588 28.3981 45.2652 27.8802C45.3683 27.673 45.3683 27.5695 45.3683 27.4659V27.2587C45.3683 26.5336 44.8525 25.7049 44.0272 25.2906C44.0272 25.2906 43.924 25.2906 43.924 25.187C43.924 25.187 43.924 25.187 43.8208 25.187L34.4328 20.94C33.917 20.7328 33.7106 20.1113 33.917 19.5934C34.1233 19.0755 34.7423 18.8683 35.2581 19.0755L44.543 23.3225C44.7493 23.3225 44.8525 23.4261 44.9557 23.5296C46.5031 24.3583 47.3285 25.8085 47.3285 27.2587V27.4659C47.3285 28.0874 47.1221 28.5017 47.019 28.7089C46.7095 29.5376 45.9873 30.1591 45.0588 30.5734C44.6462 30.7806 44.0272 30.8842 43.5113 30.8842Z" fill="black"/>
<path d="M40.2114 35.6499C39.0766 35.6499 38.1481 35.4427 37.5291 35.132L35.3626 34.1997C35.2595 34.1997 35.1563 34.1997 35.0532 34.0961L27.9347 30.885C27.4189 30.6778 27.2126 30.0563 27.4189 29.5384C27.6252 29.0204 28.2442 28.8133 28.7601 29.0204L35.7753 32.128C35.8785 32.128 35.9816 32.128 35.9816 32.2316L38.3544 33.2674C38.6639 33.4746 39.1798 33.5782 40.2114 33.5782C41.2431 33.5782 41.9652 33.2674 42.1716 32.8531C42.5842 32.128 42.1716 31.0921 41.2431 30.367L41.1399 30.2635C41.0368 30.1599 41.0367 30.1599 40.8304 30.0563C40.8304 30.0563 40.7273 30.0563 40.7273 29.9527L40.1083 29.6419L31.1329 25.6021C30.617 25.395 30.4107 24.7734 30.617 24.2555C30.8234 23.7376 31.4424 23.5304 31.9582 23.7376L41.5526 28.0882C41.8621 28.1918 42.1716 28.3989 42.5842 28.7097C44.2349 29.9527 44.8539 32.128 44.0285 33.6818C43.5127 34.9248 42.0684 35.6499 40.2114 35.6499Z" fill="black"/>
<path d="M34.6394 40.0001C33.9172 40.0001 33.2983 39.8965 32.5761 39.5857L24.7355 35.7531C24.2197 35.5459 24.0134 34.9244 24.2197 34.4065C24.426 33.8885 25.045 33.6814 25.5608 33.8885L33.4014 37.6176C34.5362 38.1355 35.8774 37.8248 36.3932 36.8925C36.4964 36.6853 36.4964 36.4782 36.4964 36.271C36.4964 35.4423 35.9806 34.6136 35.0521 34.1993C34.9489 34.1993 34.8457 34.1993 34.7426 34.0957L27.8305 30.781C27.3147 30.5738 27.1083 29.9523 27.4178 29.4344C27.7273 28.9164 28.2431 28.7093 28.759 29.02L30.616 29.9523L35.4647 32.2312C35.5679 32.2312 35.6711 32.2312 35.7742 32.3348C37.4249 33.1634 38.5597 34.7172 38.5597 36.3746C38.5597 36.9961 38.4565 37.4104 38.2502 37.7212C38.2502 37.7212 38.2502 37.8248 38.147 37.8248C37.6312 39.1714 36.1869 40.0001 34.6394 40.0001Z" fill="black"/>
<path d="M24.117 8.71714C24.0138 8.71714 23.9106 8.71714 23.8075 8.61355C21.8473 7.88846 20.1967 7.47412 18.6492 7.37053C18.1334 7.26695 17.7207 6.74902 17.7207 6.23109C17.8239 5.71317 18.3397 5.29883 18.8555 5.29883C20.5062 5.506 22.3631 5.92034 24.4265 6.74902C24.9423 6.95619 25.2518 7.5777 25.0454 8.09563C24.9423 8.40638 24.5296 8.71714 24.117 8.71714Z" fill="black"/>
<path d="M23.7042 17.2114C23.0852 17.2114 22.3631 17.0042 21.6409 16.5899C21.6409 16.5899 21.5377 16.5899 21.5377 16.4863C20.2997 15.4504 19.7839 13.7931 20.4029 12.2393C21.0219 10.3747 22.0536 8.51022 23.4979 7.06003C27.934 2.29511 35.9809 0.844919 47.2259 2.70945C47.7418 2.81304 48.1544 3.33096 48.0513 3.95247C47.9481 4.4704 47.4323 4.88474 46.8133 4.78115C36.2904 3.02021 28.8625 4.26323 24.9422 8.51022C23.7042 9.85682 22.7757 11.4106 22.2599 12.9644C21.9504 13.6895 22.1567 14.4146 22.6726 14.9325C23.601 15.4504 24.0137 15.3468 24.5295 15.0361L28.1403 11.6178C29.172 10.5819 30.6163 9.96041 32.1638 9.96041H39.2822C39.9012 9.96041 40.3138 10.3747 40.3138 10.9963C40.3138 11.6178 39.9012 12.0321 39.2822 12.0321H32.1638C31.2353 12.0321 30.2036 12.4465 29.5846 13.068L25.9738 16.4863C25.9738 16.4863 25.8707 16.4863 25.8707 16.5899C25.2517 17.0042 24.5295 17.2114 23.7042 17.2114Z" fill="black"/>
<path d="M59.193 24.9796C58.6772 24.9796 58.2645 24.6688 58.1614 24.1509L57.8519 22.2863C57.7487 21.7684 58.1614 21.1469 58.6772 21.0433C59.193 20.9397 59.812 21.3541 59.9152 21.872L60.2247 23.7365C60.3278 24.2545 59.9152 24.876 59.3993 24.9796C59.2962 24.9796 59.2962 24.9796 59.193 24.9796Z" fill="black"/>
<path d="M13.1817 9.02825C12.9753 9.02825 12.8722 9.02825 12.769 8.92467C12.2532 8.7175 12.0469 8.09599 12.3564 7.57806L13.1817 5.9207C13.388 5.40277 14.007 5.1956 14.5228 5.50636C15.0387 5.71353 15.245 6.33504 14.9355 6.85297L14.1102 8.51033C13.9038 8.82108 13.5943 9.02825 13.1817 9.02825Z" fill="black"/>
</svg>
