<svg width="160" height="40" viewBox="0 0 160 40" fill="none" xmlns="http://www.w3.org/2000/svg">
<path d="M5.37377 0.00100306L11.5213 0C11.2906 2.31112 8.58989 20.7476 8.71733 21.1563C9.45447 21.0054 13.2397 11.2241 14.401 10.196C14.753 10.1273 20.3053 10.1042 20.4416 10.1655C20.5119 10.3396 20.5435 10.433 20.4514 10.62C19.1014 13.3595 17.777 16.1264 16.4453 18.8814C15.7467 20.3266 15.0279 21.7521 14.4039 23.231C14.7102 25.5341 15.4018 28.3035 15.8309 30.6352C16.1002 32.0982 16.4175 34.2445 16.7883 35.5905C16.9201 35.9332 17.0734 37.369 17.13 37.8134C15.0237 37.8048 12.9173 37.8101 10.811 37.8293C10.4111 35.6614 9.9587 33.4608 9.5312 31.2973C9.37792 30.5218 8.71927 26.0267 8.29643 25.7222L8.12381 25.8023C7.98995 26.0139 7.87842 26.3372 7.85354 26.585C7.62898 28.8245 7.25272 31.0434 6.96722 33.2739C6.77352 34.7874 6.42094 36.2799 6.31746 37.7999C4.71882 37.9097 1.38067 37.6464 0 37.894C0.106471 36.7101 0.339811 35.6533 0.495053 34.4837L1.84562 24.8746L4.02802 9.33329C4.3274 7.31702 4.47938 5.25921 4.84007 3.23814C5.00746 2.30028 5.06749 0.881119 5.37377 0.00100306Z" fill="#00A0E6"/>
<path d="M28.4385 10.1417C28.5241 10.592 28.7167 11.2084 28.8257 11.7172C29.3108 14.029 29.8239 16.3347 30.365 18.6341L31.2378 22.538C31.3493 23.0556 31.4305 24.1812 31.7909 24.4842C32.1768 24.2779 33.4082 11.5246 34.0713 10.2944C34.1979 10.0595 38.9464 10.1454 39.7343 10.0843C39.6521 11.138 39.4578 12.1327 39.3164 13.1764L38.5265 18.9384L36.8823 30.8484C36.5593 33.1973 36.2074 35.1934 35.9495 37.6115L35.8582 37.7293C35.4305 37.899 30.8616 37.815 29.9662 37.8663C29.5956 36.8864 29.4044 35.6542 29.1541 34.6226L27.2967 27.1296C27.1384 26.4825 26.9122 24.564 26.5008 24.2265C26.3917 24.3383 26.3388 24.4194 26.3228 24.5805C25.9037 28.7971 24.7981 33.6385 24.537 37.8077C22.7987 37.8845 20.4273 37.8166 18.6409 37.8212C19.464 30.7526 21.518 17.8751 22.5023 10.3504C22.5062 10.321 22.6548 10.1541 22.6889 10.1194C24.5469 10.1911 26.568 10.1477 28.4385 10.1417Z" fill="#00A0E6"/>
<path d="M69.9676 10.106C71.6566 10.1836 74.5869 10.2048 76.2567 10.0847C76.0818 10.9544 75.6341 13.7588 75.6078 14.5044C75.5135 15.6386 75.2778 16.7246 75.112 17.8486L74.2863 23.7886L73.5089 29.5024C73.1969 31.7707 73.0718 34.3104 71.5471 36.1096C70.2129 37.6842 67.8892 38.3817 65.8715 38.4594C63.3453 38.5566 60.0634 38.7131 57.9925 37.0382C57.0876 36.259 56.6594 35.0411 56.6079 33.8861C56.5454 32.4842 56.8511 30.773 57.047 29.3424C57.5174 25.8806 57.9542 22.4243 58.4946 18.9729C58.9281 16.2042 59.2221 13.384 59.6281 10.6098C59.656 10.4195 59.7544 10.2628 59.8797 10.12C61.7828 10.197 64.157 10.1695 66.0574 10.1019C65.8131 12.1577 65.3737 14.3091 65.1041 16.3693C64.4234 21.5682 63.6878 26.7618 62.9418 31.9514C62.6348 34.0874 64.8657 33.8872 66.1744 33.3212C66.3536 33.0654 66.6332 32.7517 66.8392 32.5064C67.0595 31.3034 67.181 29.698 67.3642 28.436L69.0818 16.2947C69.387 14.1268 69.5771 12.2889 69.9676 10.106Z" fill="#00A0E6"/>
<path d="M55.5252 10.0878L55.5574 10.0931C55.8408 10.5624 55.1201 21.1712 55.0661 22.5271L54.5182 37.81C52.6564 37.8866 50.2597 37.8139 48.356 37.8118C48.5323 36.2389 48.4619 34.5539 48.658 32.9719C47.6756 32.8299 45.6973 32.8981 44.6836 32.9156C44.5557 33.942 43.8954 36.522 43.4864 37.5736C43.4074 37.7767 43.2384 37.7753 43.0399 37.8216C41.1416 37.7993 39.2114 37.8146 37.3105 37.8125C37.6132 36.9738 37.7527 36.1076 38.0081 35.2615C38.4693 33.7335 38.9094 32.2055 39.3543 30.6737L43.8003 15.5797C44.1259 14.4852 44.9622 10.942 45.5509 10.1779C45.8952 10.0851 47.5187 10.1582 48.0001 10.144C50.37 10.0742 53.1841 10.2779 55.5252 10.0878ZM46.3359 28.2304L49.0901 28.2485C49.1543 24.8558 49.7986 18.6507 49.961 14.9888C49.9166 14.9346 49.8786 14.888 49.8469 14.8494L49.7168 14.7996C49.3675 15.2192 46.5314 26.4081 46.0276 28.0241L46.0708 28.2131L46.3359 28.2304Z" fill="#00A0E6"/>
<path d="M130.576 10.0925C133.146 10.3603 135.95 10.0078 138.516 10.221C142.416 10.5449 142.527 14.7135 142.097 17.6931C141.818 19.6368 141.251 22.1449 140.19 23.8175C139.83 24.3832 138.995 25.055 138.478 25.4501C139.637 26.8006 139.666 28.3715 139.502 30.0753C139.229 32.8836 138.741 35.6833 138.44 38.4867C137.069 38.5024 135.679 38.5475 134.315 38.5084C133.752 38.4919 133.275 38.0238 133.357 37.4477C133.563 36.0089 133.715 34.5124 133.916 33.0787C134.049 32.1432 134.491 29.4721 134.056 28.7403C133.688 28.4416 132.915 28.5005 132.439 28.4997C131.942 31.7222 131.221 35.2068 130.654 38.475C129.339 38.5534 127.96 38.5009 126.641 38.5088C125.516 38.5155 125.536 38.0379 125.684 37.0644C126.04 34.7391 126.548 32.4352 126.961 30.121L129.911 13.7494C130.092 12.7468 130.511 10.9923 130.576 10.0925ZM133.411 23.3049C134.207 23.3092 134.604 23.3595 135.343 23.0453C136.404 21.8356 137.045 17.3276 136.956 15.6974C136.154 15.5155 135.686 15.4559 134.855 15.4701C134.306 17.6255 133.872 20.9877 133.411 23.3049Z" fill="#898988"/>
<path d="M102.943 10.1013C103.902 10.1813 107.534 10.0233 107.923 10.4115C108.146 11.5616 106.867 17.5547 106.586 19.0277L104.12 32.5958C103.841 34.1825 103.198 37.0175 103.088 38.5014C102.253 38.5093 98.5851 38.6777 98.1219 38.2823C97.7844 37.4557 98.4753 34.7853 98.6686 33.76L99.8877 27.1297C99.0325 27.0735 98.1448 27.0915 97.2861 27.0955C97.1472 28.4263 96.7227 30.292 96.4582 31.6434C96.017 33.9218 95.6162 36.208 95.2567 38.5007C94.202 38.5108 90.7374 38.7873 90.1582 38.0459C90.2373 37.131 90.5299 35.7287 90.6969 34.7963L91.9406 28.0376L93.8768 17.3937C94.2855 15.0791 94.696 12.3745 95.1618 10.1054C96.6638 10.2409 98.1808 10.0735 99.6679 10.2275C100.277 10.2617 100.153 11.4212 100.07 11.8383C99.4385 15.0051 99.0685 18.4167 98.3003 21.5378C99.1775 21.5685 100.018 21.5509 100.894 21.5354C101.135 20.5118 101.321 19.3494 101.515 18.3003C102.016 15.5964 102.556 12.8184 102.943 10.1013Z" fill="#898988"/>
<path d="M112.757 10.0951C114.257 10.0951 115.847 10.0575 117.376 10.2467C118.092 10.3354 117.641 12.1259 117.55 12.6333C116.43 18.928 115.172 25.2086 114.126 31.5142C114.064 31.8932 113.992 32.8223 114.188 33.154C114.602 33.3897 115.246 33.2619 115.715 33.1991C116.872 31.9188 117.672 25.8124 118.036 23.8278L120.57 10.1081C126.691 10.6377 125.768 8.54842 124.884 14.9293L123.078 24.8172C122.48 28.2232 121.948 31.6725 120.85 34.9576C119.601 38.6931 116.495 38.8729 113.093 38.6586C112.118 38.5971 110.375 38.183 109.82 37.2969C108.003 34.3884 109.318 30.0082 109.714 26.805C110.283 23.5564 110.957 20.3099 111.506 17.0576C111.885 14.8148 112.535 12.3307 112.757 10.0951Z" fill="#898988"/>
<path d="M146.776 10.1102C149.553 10.2951 152.427 10.1128 155.209 10.1599C155.891 10.1714 158.898 9.93733 158.993 10.5373C159.18 11.724 158.459 14.2577 158.179 15.493C157.008 15.4526 155.79 15.4755 154.614 15.4833C154.292 17.0056 154.063 18.561 153.774 20.0945L150.988 35.1638C150.816 36.3052 150.541 37.3077 150.491 38.4934C149.036 38.5077 147.574 38.5445 146.12 38.4903C145.595 38.4708 145.308 38.0892 145.388 37.5842C146.175 32.5972 147.204 27.6463 148.041 22.6642C148.443 20.2753 148.997 17.9133 149.317 15.5061C148.572 15.4454 146.407 15.6685 145.995 15.2008C145.781 14.4024 146.486 10.9281 146.776 10.1102Z" fill="#898988"/>
<path d="M79.1971 10.0428C80.3407 10.2278 84.1817 10.1758 85.4993 10.1569C87.089 10.1342 90.3928 10.2499 91.8931 10.0828C91.8958 10.7846 91.3728 13.8886 91.2454 14.9042C89.4164 14.9047 86.5072 14.9998 84.7451 14.8977C84.5749 16.4015 84.1938 18.5295 84.1277 19.9261C86.0705 19.9316 88.0787 19.9635 90.0149 19.8949C89.9323 20.6129 89.5922 24.269 89.2722 24.6302C88.4109 24.7593 84.4802 24.6797 83.3967 24.6781L81.8882 35.7005C81.7477 36.7773 81.4286 38.2122 81.3621 39.2141H75.0573C75.5511 36.3004 75.8402 33.4429 76.2755 30.5194L78.1783 16.9167C78.4947 14.6689 78.9169 12.2807 79.1971 10.0428Z" fill="#00A0E6"/>
</svg>
