<svg width="48" height="41" viewBox="0 0 48 41" fill="none" xmlns="http://www.w3.org/2000/svg">
<path d="M47.3657 25.2734C47.4587 25.1633 47.5362 25.0245 47.5865 24.851C47.695 24.464 47.5732 24.015 47.2889 23.7307C47.2519 23.6945 47.2128 23.6606 47.1722 23.6303C47.0452 23.5343 46.9034 23.4309 46.752 23.3209C46.125 22.8645 45.106 22.1231 44.7604 21.5914C44.7973 21.3625 44.8505 20.9918 44.7161 20.5878C44.7057 20.5583 44.6954 20.5288 44.6828 20.5C44.5196 20.1196 44.2501 19.8501 44.0529 19.6537C43.9894 19.5902 43.92 19.5311 43.8912 19.4986C43.8521 19.3627 43.9207 18.93 43.9665 18.6442C44.1083 17.747 44.3225 16.3919 43.1719 15.471C42.754 15.1579 42.302 14.9711 41.8951 14.8603C42.1824 14.5103 42.6602 14.0037 43.4533 13.2763C43.5737 13.1663 43.6638 13.0828 43.7081 13.0385C43.8284 12.9189 44.1932 12.5571 44.1918 11.9286C44.0802 9.88383 43.0848 8.1226 42.1218 6.41897C41.5658 5.4346 41.04 4.50414 40.7099 3.56703C40.6848 3.49614 40.653 3.42894 40.6146 3.36543C40.6139 3.06266 40.5977 2.54352 40.2594 2.0938C39.7765 1.39669 39.2795 0.674475 38.2981 0.980937C38.2974 0.980937 38.2523 0.977244 38.1415 0.940321C37.7878 0.187829 37.0781 -0.0905712 36.2082 0.200383C35.808 0.334044 35.5924 0.613921 35.4705 0.83029C33.2108 1.93281 26.7825 2.24592 23.8693 1.83903C23.5126 1.78881 23.1574 1.91435 22.9108 2.17429C22.4478 2.66389 21.8562 2.98291 21.3105 3.07447C21.5852 2.62327 21.5417 2.01552 21.2094 1.60863C20.8992 1.20986 20.5174 1.01934 20.2626 0.892321C20.1526 0.836937 20.0359 0.80149 19.9178 0.785244C19.8432 0.700321 19.7546 0.625736 19.6534 0.564444C19.1904 0.287521 18.771 0.11989 18.3714 0.0541673C16.3909 -0.27814 14.4207 0.989798 12.9829 1.91435C12.706 2.09306 12.4438 2.26143 12.2304 2.38844C12.1728 2.4202 12.0126 2.449 11.8833 2.47263C11.5326 2.53614 11.0526 2.62327 10.6132 2.99989C9.8976 3.63127 9.52689 4.45318 9.30535 4.94352C9.30166 4.95164 9.29797 4.95903 9.29501 4.96715C7.82031 5.36518 6.41797 5.94192 5.05772 6.50167C4.68258 6.65601 4.30818 6.80961 3.89243 6.97724C3.50769 7.14931 3.23151 7.4085 3.00997 7.61675C2.96566 7.65884 2.9088 7.71201 2.85858 7.75558C2.62745 7.69651 2.27446 7.64481 1.88012 7.80284C1.83655 7.81983 1.7952 7.83977 1.75458 7.86266C1.43114 8.04211 1.12172 8.35078 1.08111 8.881C0.468923 8.881 0 9.3765 0 9.98869C0 10.383 0.217108 10.7294 0.535385 10.9258C0.574523 10.9531 0.612185 10.9753 0.646892 10.9952C0.754708 11.0728 0.874338 11.1281 0.997662 11.1621C1.05009 11.1843 1.10474 11.2027 1.16012 11.2175L1.19335 11.2308C1.30486 11.2906 1.42745 11.3312 1.55815 11.3497C1.70511 11.8016 1.90302 12.2801 2.08689 12.7225C2.20209 13.0009 2.35643 13.3738 2.40591 13.5333C2.39778 13.7356 2.16148 14.0635 1.95175 14.3552C1.53969 14.9268 0.917908 15.7915 1.29452 16.8143C1.54191 17.5564 2.27225 17.8902 2.91618 18.1834C3.04542 18.2425 3.22634 18.3252 3.37108 18.4012C3.36369 18.4182 3.35557 18.4367 3.34671 18.4559C3.19385 18.7934 2.84234 19.5724 3.49514 20.4239C3.64062 20.6403 3.81342 20.7872 3.94708 20.8936C3.9168 21.0723 3.89022 21.3108 3.94338 21.5759C3.95225 21.6224 3.96406 21.6667 3.97957 21.7118C4.01502 21.8188 4.07188 21.9407 4.15902 22.0588C4.09772 22.174 4.032 22.2878 3.99138 22.3564C3.93969 22.4458 3.89391 22.5256 3.85846 22.592C3.56751 23.0668 3.42868 23.7824 4.25649 24.6169C4.16862 24.9182 4.12062 25.3598 4.42265 25.7593C4.73428 26.2275 5.18695 26.387 5.48012 26.4601C5.65071 27.0819 5.61009 28.7227 5.32505 29.4006C5.16997 29.7691 5.22535 30.193 5.47052 30.5091C5.71569 30.8259 6.11298 30.9839 6.50806 30.9263C6.93858 30.862 7.28714 30.7188 7.54855 30.498C7.56406 30.5098 7.57957 30.5216 7.59582 30.5334C8.35422 31.1486 9.072 31.1796 9.54609 31.1995C9.60221 31.2025 9.65243 31.2047 9.69674 31.2076C9.73145 31.2985 9.77945 31.3982 9.84738 31.4993C9.95446 31.6596 10.1014 31.7896 10.2742 31.8752C10.3776 31.9262 10.4987 31.9668 10.6294 31.986C10.6575 32.02 10.6878 32.0539 10.721 32.0871C10.893 32.2592 11.1109 32.3648 11.3398 32.3995C11.3398 32.4741 11.3457 32.5509 11.3583 32.6307C11.4078 32.9541 11.5975 33.2377 11.8759 33.4075L12.8005 33.9717C13.6143 35.8518 14.7375 35.7322 15.3393 35.4922C15.3674 35.4804 15.3954 35.4686 15.422 35.4545C15.7898 35.2707 15.9774 34.9804 16.0837 34.722C16.4005 34.6422 16.8731 34.4635 17.1478 33.9673C17.1685 33.9754 17.1884 33.982 17.2091 33.9887C17.2342 33.9968 17.2593 34.0042 17.2852 34.0108C17.4078 34.0419 17.5252 34.0559 17.6352 34.0588C17.8139 34.5802 18.291 34.7722 18.6107 34.8675C18.6742 35.0196 18.7732 35.1931 18.9334 35.3541C19.2635 35.6827 19.7428 35.871 20.1984 35.8297C20.513 35.7972 20.8896 35.758 21.2049 35.6044C21.4405 35.6783 21.6502 35.7263 21.7602 35.7499C21.9559 35.8038 22.142 35.8193 22.303 35.823C22.317 35.8577 22.3311 35.8932 22.3451 35.9286C22.6457 36.6819 22.6922 36.7978 22.8798 36.9846C22.9167 37.0223 22.9566 37.0563 22.9986 37.088C23.1899 37.2313 23.3915 37.3059 23.5717 37.345C23.6116 37.5695 23.6943 37.8302 23.8811 38.0753C23.9786 38.2075 24.1329 38.3626 24.37 38.4608C24.4261 38.6196 24.5184 38.782 24.6668 38.9312C24.6949 38.9585 24.7237 38.9851 24.7547 39.0095C25.1136 39.3019 25.5552 39.4238 25.982 39.3477C26.606 39.2421 27.0284 38.7857 27.3615 38.305L27.3622 38.3057C27.4981 38.5369 27.6975 38.6942 27.8555 38.7732C27.9124 38.8012 27.9722 38.8241 28.0327 38.8433C28.0305 38.8736 28.029 38.9054 28.029 38.9393C28.029 39.3728 28.2454 39.7583 28.6065 39.9702C28.8089 40.0891 29.0075 40.1334 29.1929 40.1334C29.4432 40.1334 29.6692 40.0537 29.8457 39.9695C30.3249 40.208 30.7266 40.1194 31.0014 39.982C31.1077 39.9289 31.2037 39.8587 31.2879 39.7753C31.4334 39.6298 31.4954 39.4976 31.5818 39.3145C31.8299 38.788 32.0086 38.5029 32.1246 38.3508C32.3158 38.4069 32.5787 38.446 32.8246 38.3818C32.9132 38.3604 32.9937 38.3308 33.0676 38.2969C33.3223 38.5014 33.6879 38.7304 34.1893 38.7304C34.8074 38.7304 35.3723 38.3811 35.7947 37.7438C36.014 37.65 36.1698 37.5112 36.2821 37.3716C36.8559 37.3125 37.6409 37.3841 38.0433 37.5119C38.1282 37.7593 38.2966 38.0945 38.6762 38.3124C39.0587 38.5524 39.4434 38.6277 39.7277 38.6823C39.8141 38.6986 39.902 38.7148 39.9707 38.734C40.56 38.915 41.1102 38.9955 41.5961 39.0656C41.7511 39.0878 41.9062 39.1107 42.0605 39.1358C42.2548 39.1683 42.4534 39.1454 42.6491 39.1166C43.2901 39.567 43.8749 39.1779 43.9473 39.1276C44.3453 38.8426 44.4997 38.3153 44.349 37.8575C44.1253 37.15 43.9554 36.6161 43.5648 36.3591C43.5618 36.2883 43.5537 36.2152 43.5382 36.1398C43.5316 36.1073 43.5234 36.0756 43.5146 36.0438C43.395 35.6392 43.1756 35.3179 42.9999 35.0587C42.9371 34.9672 42.8603 34.8534 42.8086 34.7619C43.2133 33.6608 45.3762 29.6222 45.905 28.9029C45.9456 28.8793 45.9862 28.8771 46.1191 28.8712C47.5547 28.8032 47.8375 27.7162 47.9254 26.6609C47.9276 26.6307 47.9291 26.5996 47.9291 26.5694C47.9298 26.1669 47.7622 25.7674 47.3657 25.2734ZM44.4081 27.2613C44.3601 27.3041 40.464 33.3241 40.5873 35.0255L40.5733 35.0277C40.6715 35.5756 40.9469 35.9803 41.1677 36.3045C41.1988 36.3503 41.232 36.399 41.2638 36.447C41.2217 36.5541 41.1914 36.6545 41.17 36.7513C40.9824 36.7136 40.7941 36.6693 40.6014 36.6102C40.4492 36.5659 40.2986 36.5356 40.1494 36.5061C40.1191 36.5002 40.0837 36.4935 40.0482 36.4869C39.9862 36.3178 39.885 36.1192 39.7049 35.9412C39.6724 35.9087 39.6377 35.8784 39.6007 35.8503C38.5477 35.0388 36.4335 35.0366 35.4587 35.2684C35.3391 35.2884 35.2032 35.3297 35.0658 35.4095C34.865 35.3733 34.6604 35.3932 34.4581 35.4641C34.1598 35.5712 33.9301 35.7713 33.7713 36.0623C33.6288 35.9899 33.4663 35.9308 33.2832 35.9006C32.9657 35.8385 32.657 35.8932 32.3586 36.0763C32.1711 36.0283 31.9407 36.0032 31.6933 36.0645C31.0626 36.2004 30.5804 36.6678 30.192 37.2483C30.0724 37.0142 29.8804 36.8118 29.5806 36.6841C29.4114 36.5999 29.2475 36.5593 29.0932 36.546C29.006 36.4751 28.893 36.4049 28.7535 36.3562C28.6375 36.1118 28.4574 35.8208 28.1406 35.6081C27.8444 35.4014 27.487 35.3297 27.1407 35.3991C26.5558 35.5195 26.2117 35.9803 25.9038 36.4677C25.8284 36.4256 25.7531 36.3931 25.6778 36.3695C25.6298 36.1627 25.5404 35.9338 25.3676 35.7174C25.3425 35.6864 25.3159 35.6561 25.2871 35.6273C25.0154 35.3548 24.6993 35.25 24.4416 35.2079C24.4276 35.1739 24.4143 35.1392 24.4002 35.1045C24.0997 34.352 24.0532 34.2368 23.8678 34.05C23.8375 34.0197 23.8058 33.9909 23.7726 33.9643C23.3103 33.5958 22.7808 33.5988 22.467 33.6062C22.419 33.6062 22.3702 33.6099 22.3266 33.6062C22.3001 33.5988 22.2727 33.5921 22.2462 33.5877C22.0726 33.553 21.8496 33.4865 21.7278 33.4481C21.5808 33.2532 21.394 33.1166 21.1702 33.0398C20.9893 32.9785 20.7788 32.9674 20.5824 33.0021C20.5226 32.7089 20.3668 32.3988 20.1785 32.02L20.1762 32.0214C20.0522 31.7696 19.8388 31.5606 19.5803 31.455C19.1269 31.2697 18.5871 31.3841 18.2385 31.7401C18.2267 31.7519 18.2156 31.7637 18.2053 31.7763C18.0738 31.7792 17.9306 31.7984 17.7851 31.8243C17.7164 31.7859 17.6411 31.7386 17.5591 31.6906C16.9728 31.345 16.1708 30.8731 15.216 31.0009C14.9664 31.043 14.7227 31.1818 14.5425 31.3738C14.5447 31.3169 14.544 31.2579 14.5396 31.1966C14.4753 30.3813 13.7332 29.9921 13.4393 29.8496C13.1424 29.6864 12.7488 29.6008 12.0273 29.8496C11.8708 29.7189 11.6507 29.6022 11.3568 29.5852C11.3014 29.5276 11.2386 29.4715 11.1678 29.4176C11.1404 29.3969 11.1116 29.377 11.0828 29.36C10.5386 29.0255 10.0194 29.0033 9.63988 28.9864C9.40948 28.976 9.28172 28.9686 9.15914 28.9147C9.11261 28.4414 8.85268 27.776 7.80185 27.6401C7.81957 26.497 7.62535 25.3347 7.02425 24.7845C6.8832 24.6427 6.73034 24.5467 6.58338 24.4795C6.58708 24.3289 6.5664 24.1679 6.50141 24.0054C6.3936 23.682 6.20308 23.4383 6.02954 23.2544C6.37588 22.6393 6.78794 21.7516 6.28431 20.9777C6.25625 20.9312 6.22523 20.8876 6.19126 20.8463C6.20898 20.6041 6.18978 20.3057 6.03914 20C5.87963 19.6153 5.60714 19.3768 5.424 19.2313C5.53181 18.9802 5.66252 18.6147 5.66252 18.1428C5.66252 16.9982 4.56369 16.4968 3.83631 16.1644C3.73588 16.1187 3.61034 16.0611 3.49883 16.0064C3.57342 15.889 3.67237 15.7516 3.74843 15.6453C4.16418 15.0678 4.73354 14.2762 4.60135 13.2165C4.5984 13.1899 4.59397 13.1633 4.5888 13.1375C4.52751 12.8325 4.37538 12.4574 4.13243 11.8703C3.97218 11.4841 3.75065 10.9502 3.63028 10.558C3.70117 10.3136 3.68862 10.0788 3.63766 9.86094C4.02535 9.69921 4.30818 9.43263 4.52677 9.22734C4.61391 9.1461 4.74462 9.02278 4.75495 9.01318C5.136 8.86032 5.51778 8.70377 5.89957 8.54647C7.31225 7.96531 8.77218 7.36494 10.193 7.01786C10.8569 6.88567 11.105 6.33552 11.3236 5.85035C11.4927 5.47595 11.7009 5.01441 12.0318 4.69835C12.0886 4.68211 12.195 4.66291 12.2762 4.64814C12.5509 4.59866 12.926 4.53072 13.3307 4.30549C13.5929 4.15041 13.8772 3.96727 14.1792 3.7738C15.281 3.06561 16.6353 2.22746 17.726 2.21121C17.7999 2.33158 17.8774 2.43349 17.9387 2.51398L17.9542 2.53466C17.9808 2.61737 18.0089 2.75103 18.0325 2.86328C18.1558 3.45404 18.387 4.55287 19.6785 5.06832C21.069 5.61404 22.7838 5.21897 24.0975 4.09355C27.3637 4.42955 33.9035 4.17774 36.6919 2.68235C36.7975 2.76432 36.9223 2.83891 37.0686 2.89798C37.6025 3.12691 38.0145 3.19632 38.3239 3.19115C38.3461 3.22291 38.3712 3.25761 38.3993 3.29675C38.4007 3.33441 38.3985 3.37134 38.3985 3.40678C38.3985 3.64235 38.3985 4.12309 38.7028 4.52924C39.0956 5.56604 39.6524 6.55115 40.193 7.50672C41.0016 8.93786 41.7689 10.2959 41.9454 11.6502C40.1849 13.2645 39.0617 14.5864 39.2913 15.7886C39.3991 16.3528 39.7942 16.8025 40.3746 17.0225C40.563 17.0934 40.9056 17.1695 41.2889 16.9908C41.503 17.0462 41.6891 17.1281 41.8139 17.2219C41.9328 17.3164 41.8316 17.9545 41.7777 18.2979C41.6736 18.9544 41.5562 19.6987 41.8553 20.3715C42.0185 20.7532 42.288 21.0228 42.4859 21.22C42.5117 21.2458 42.5383 21.2709 42.5627 21.2945C42.5258 21.5286 42.4778 21.903 42.6624 22.3594C43.0523 23.1828 43.8742 23.919 44.6614 24.529C44.5211 24.8849 44.5433 25.2785 44.7264 25.6433C44.7759 25.743 44.8401 25.8339 44.9177 25.9136C44.9302 25.9276 44.9863 25.9808 44.9989 25.9934C45.36 26.3338 45.5557 26.5568 45.6591 26.6875C45.3253 26.7348 44.8829 26.8662 44.4081 27.2613Z" fill="black"/>
</svg>
