<svg width="129" height="104" viewBox="0 0 129 104" fill="none" xmlns="http://www.w3.org/2000/svg">
<path d="M1.82069e-06 20.75C1.82069e-06 16.3871 -0.00398621 12.9135 0.36133 10.1963C0.734399 7.42172 1.52563 5.13844 3.33203 3.33203C5.13844 1.52563 7.42172 0.734399 10.1963 0.36133C12.9135 -0.00398621 16.3871 1.82069e-06 20.75 1.82069e-06H64.5C68.8629 1.82069e-06 72.3365 -0.00398618 75.0537 0.36133C77.8283 0.734399 80.1116 1.52563 81.918 3.33203C83.7244 5.13844 84.5156 7.42172 84.8887 10.1963C85.1097 11.84 85.1943 13.7607 85.2275 15.9873C85.5524 15.7593 85.9479 15.625 86.375 15.625C109.916 15.625 129 34.7089 129 58.25V75.5195C129 76.8342 129.004 77.6754 128.913 78.4072C128.269 83.5738 124.199 87.644 119.032 88.2881C118.3 88.3793 117.459 88.375 116.145 88.375H113.262C112.269 97.1673 104.808 104 95.75 104C86.6923 104 79.2314 97.1673 78.2383 88.375H50.7617C49.7686 97.1673 42.3077 104 33.25 104C24.1916 104 16.7305 97.1663 15.7383 88.373C13.7151 88.3668 12.0228 88.3389 10.6006 88.21C8.72978 88.0404 7.13026 87.6836 5.6875 86.8506C4.06627 85.9145 2.70253 84.5942 1.71582 83.0078L1.52442 82.6875C0.691436 81.2447 0.33463 79.6452 0.165041 77.7744C-0.00204086 75.9309 1.82069e-06 73.6339 1.82069e-06 70.75V20.75ZM33.25 72.75C25.7251 72.75 19.625 78.8501 19.625 86.375C19.625 93.8999 25.7251 100 33.25 100C40.7749 100 46.875 93.8999 46.875 86.375C46.875 78.8501 40.7749 72.75 33.25 72.75ZM95.75 72.75C88.2251 72.75 82.125 78.8501 82.125 86.375C82.125 93.8999 88.2251 100 95.75 100C103.275 100 109.375 93.8999 109.375 86.375C109.375 78.8501 103.275 72.75 95.75 72.75ZM28.125 45.748V20.75C28.125 19.6454 29.0204 18.75 30.125 18.75C31.2296 18.75 32.125 19.6454 32.125 20.75V45.748C32.125 46.8526 31.2296 47.748 30.125 47.748C29.0204 47.748 28.125 46.8526 28.125 45.748ZM53.125 45.748V20.75C53.125 19.6454 54.0204 18.75 55.125 18.75C56.2296 18.75 57.125 19.6454 57.125 20.75V45.748C57.125 46.8526 56.2296 47.748 55.125 47.748C54.0204 47.748 53.125 46.8526 53.125 45.748ZM4 70.75C4 73.7075 4.00152 75.792 4.14844 77.4131C4.29287 79.0066 4.56532 79.9549 4.98828 80.6875L5.11231 80.8955C5.75204 81.924 6.63642 82.7799 7.6875 83.3867L7.97363 83.5381C8.6677 83.8754 9.56776 84.1002 10.9619 84.2266C12.2144 84.3401 13.7436 84.3657 15.7383 84.3721C16.7327 75.5812 24.1933 68.75 33.25 68.75C42.3077 68.75 49.7686 75.5827 50.7617 84.375H78.2383C78.6191 81.0038 79.9499 77.9207 81.958 75.4004C81.5253 75.0335 81.25 74.4867 81.25 73.875V20.75C81.25 16.274 81.246 13.1182 80.9248 10.7295C80.6114 8.39836 80.0292 7.09955 79.0898 6.16016C78.1505 5.22077 76.8516 4.63862 74.5205 4.3252C72.1318 4.00404 68.976 4 64.5 4H20.75C16.274 4 13.1182 4.00404 10.7295 4.3252C8.39836 4.63862 7.09955 5.22077 6.16016 6.16016C5.22077 7.09955 4.63862 8.39836 4.3252 10.7295C4.00404 13.1182 4 16.274 4 20.75V70.75ZM85.25 72.2178C88.1828 70.0391 91.8158 68.75 95.75 68.75C104.808 68.75 112.269 75.5827 113.262 84.375H116.145C117.579 84.375 118.114 84.3711 118.537 84.3184C121.887 83.9008 124.526 81.262 124.943 77.9121C124.996 77.4888 125 76.9544 125 75.5195V58.25C125 36.918 107.707 19.625 86.375 19.625C85.9565 19.625 85.5682 19.4961 85.2471 19.2764C85.2475 19.7559 85.25 20.247 85.25 20.75V72.2178Z" fill="white"/>
</svg>
