<svg width="117" height="129" viewBox="0 0 117 129" fill="none" xmlns="http://www.w3.org/2000/svg">
<path d="M112.5 75.3506C112.5 70.7512 112.495 67.5301 112.151 65.2168C111.812 62.9329 111.216 62.0739 110.484 61.6221C109.753 61.1703 108.718 61.0212 106.523 61.7393C104.301 62.4666 101.418 63.9022 97.3047 65.959L77.8945 75.6641C77.2746 75.9741 76.5379 75.9406 75.9482 75.5762C75.3588 75.2117 75 74.568 75 73.875C75 69.9731 74.9958 67.2425 74.7393 65.2432C74.4842 63.2556 74.0265 62.4424 73.4941 61.9922C73.1726 61.7203 72.8118 61.498 72.4248 61.332C71.784 61.0573 70.8525 61.0112 68.9609 61.6719C67.058 62.3366 64.6139 63.5539 61.124 65.2988L41.5 75.1104V125H89.5C95.449 125 99.7096 124.996 102.949 124.561C106.131 124.133 108.028 123.322 109.425 121.925C110.822 120.528 111.633 118.631 112.061 115.449C112.496 112.21 112.5 107.949 112.5 102V75.3506ZM89.5 18.75C90.6046 18.75 91.5 19.6454 91.5 20.75C91.5 21.8546 90.6046 22.75 89.5 22.75H52C50.8954 22.75 50 21.8546 50 20.75C50 19.6454 50.8954 18.75 52 18.75H89.5ZM18.75 14.5C18.75 11.6104 18.7462 9.24213 18.9971 7.37598C19.2557 5.45224 19.8172 3.76485 21.166 2.41602C22.5148 1.06719 24.2022 0.505714 26.126 0.247074C27.9921 -0.00378251 30.3605 3.24968e-06 33.25 3.24968e-06H64.5C65.6046 3.24968e-06 66.5 0.895434 66.5 2C66.5 3.10457 65.6046 4 64.5 4H33.25C30.2472 4 28.1959 4.0042 26.6582 4.21094C25.1782 4.40995 24.4768 4.7634 23.9951 5.24512C23.5134 5.72684 23.16 6.42825 22.9609 7.90821C22.7542 9.44593 22.75 11.4972 22.75 14.5C22.75 15.6046 21.8546 16.5 20.75 16.5C19.6454 16.5 18.75 15.6046 18.75 14.5ZM89.5 3.24968e-06C90.6046 3.24968e-06 91.5 0.895434 91.5 2C91.5 3.10457 90.6046 4 89.5 4H83.25C82.1454 4 81.25 3.10457 81.25 2C81.25 0.895434 82.1454 3.24968e-06 83.25 3.24968e-06H89.5ZM4 102C4 107.949 4.00392 112.21 4.43946 115.449C4.86729 118.631 5.67816 120.528 7.0752 121.925C8.47224 123.322 10.3686 124.133 13.5508 124.561C16.7904 124.996 21.051 125 27 125H37.5V54H4V102ZM37.5 45.75C37.5 42.7472 37.4958 40.6959 37.2891 39.1582C37.0901 37.6782 36.7366 36.9768 36.2549 36.4951C35.7732 36.0134 35.0718 35.66 33.5918 35.4609C32.0541 35.2542 30.0028 35.25 27 35.25H14.5C11.4972 35.25 9.44593 35.2542 7.90821 35.4609C6.42825 35.66 5.72684 36.0134 5.24512 36.4951C4.7634 36.9768 4.40995 37.6782 4.21094 39.1582C4.0042 40.6959 4 42.7472 4 45.75V50H37.5V45.75ZM41.5 70.6387L59.335 61.7217C62.7241 60.0271 65.4397 58.6649 67.6426 57.8955C69.8567 57.1222 71.9778 56.7872 74.002 57.6553C74.7535 57.9776 75.4527 58.4104 76.0771 58.9385C77.7589 60.3607 78.4085 62.4072 78.707 64.7334C78.9142 66.3479 78.9734 68.3146 78.9912 70.6426L95.5156 62.3809C99.5094 60.384 102.707 58.7792 105.279 57.9375C107.879 57.0867 110.354 56.8399 112.587 58.2197C114.82 59.5998 115.706 61.9236 116.107 64.6299C116.505 67.307 116.5 70.8852 116.5 75.3506V102C116.5 107.836 116.504 112.414 116.024 115.982C115.537 119.608 114.517 122.489 112.253 124.753C109.989 127.017 107.108 128.037 103.482 128.524C99.9143 129.004 95.336 129 89.5 129H27C21.164 129 16.5857 129.004 13.0176 128.524C9.3919 128.037 6.51118 127.017 4.24707 124.753C1.98296 122.489 0.963054 119.608 0.475589 115.982C-0.00413841 112.414 3.24939e-06 107.836 3.24939e-06 102V45.75C3.24939e-06 42.8605 -0.00378239 40.4921 0.247074 38.626C0.505713 36.7022 1.06719 35.0148 2.41602 33.666C3.76485 32.3172 5.45224 31.7557 7.37598 31.4971C9.24213 31.2462 11.6104 31.25 14.5 31.25H27C29.8896 31.25 32.2579 31.2462 34.124 31.4971C36.0478 31.7557 37.7352 32.3172 39.084 33.666C40.4328 35.0148 40.9943 36.7022 41.2529 38.626C41.5038 40.4921 41.5 42.8605 41.5 45.75V70.6387Z" fill="white"/>
</svg>
