<svg width="48" height="44" viewBox="0 0 48 44" fill="none" xmlns="http://www.w3.org/2000/svg">
<path d="M46.125 9H9V1.125C9 0.826631 8.88147 0.540483 8.6705 0.329505C8.45952 0.118526 8.17337 0 7.875 0H5.625C4.13368 0.0016873 2.70391 0.594861 1.64939 1.64939C0.594861 2.70391 0.0016873 4.13368 0 5.625V37.875C0.0016873 39.3663 0.594861 40.7961 1.64939 41.8506C2.70391 42.9051 4.13368 43.4983 5.625 43.5H46.125C46.4234 43.5 46.7095 43.3815 46.9205 43.1705C47.1315 42.9595 47.25 42.6734 47.25 42.375V10.125C47.25 9.82663 47.1315 9.54048 46.9205 9.3295C46.7095 9.11853 46.4234 9 46.125 9ZM5.625 2.25H6.75V32.25H5.625C4.40729 32.2487 3.22238 32.6446 2.25 33.3776V5.625C2.25099 4.7302 2.60689 3.87233 3.23961 3.23961C3.87233 2.60689 4.7302 2.25099 5.625 2.25ZM45 41.25H5.625C4.72989 41.25 3.87145 40.8944 3.23851 40.2615C2.60558 39.6286 2.25 38.7701 2.25 37.875C2.25 36.9799 2.60558 36.1214 3.23851 35.4885C3.87145 34.8556 4.72989 34.5 5.625 34.5H7.875C8.17337 34.5 8.45952 34.3815 8.6705 34.1705C8.88147 33.9595 9 33.6734 9 33.375V11.25H45V41.25Z" fill="black"/>
<path d="M12.375 27.75H33.375C33.6734 27.75 33.9595 27.6315 34.1705 27.4205C34.3815 27.2095 34.5 26.9234 34.5 26.625C34.5 26.3266 34.3815 26.0405 34.1705 25.8295C33.9595 25.6185 33.6734 25.5 33.375 25.5H32.9344C32.7233 23.5986 31.9772 21.796 30.7826 20.3017C29.5881 18.8073 27.9942 17.6825 26.186 17.0577L26.2469 16.2052C26.2579 16.0511 26.2371 15.8964 26.1857 15.7507C26.1343 15.605 26.0534 15.4715 25.9482 15.3585C25.8429 15.2454 25.7155 15.1552 25.5739 15.0935C25.4323 15.0319 25.2795 15 25.125 15H20.625C20.4705 15 20.3177 15.0318 20.176 15.0935C20.0343 15.1551 19.9069 15.2453 19.8016 15.3584C19.6963 15.4714 19.6155 15.605 19.5641 15.7506C19.5127 15.8963 19.4918 16.0511 19.5028 16.2052L19.5637 17.0577C17.7556 17.6825 16.1617 18.8074 14.9672 20.3017C13.7728 21.7961 13.0267 23.5986 12.8156 25.5H12.375C12.0766 25.5 11.7905 25.6185 11.5795 25.8295C11.3685 26.0405 11.25 26.3266 11.25 26.625C11.25 26.9234 11.3685 27.2095 11.5795 27.4205C11.7905 27.6315 12.0766 27.75 12.375 27.75ZM30.6706 25.5H25.5833L26.0188 19.4019C27.2516 19.9349 28.3267 20.7755 29.1413 21.8433C29.9558 22.9111 30.4824 24.1702 30.6706 25.5ZM23.9167 17.25L23.3274 25.5H22.4226L21.8333 17.25H23.9167ZM19.7312 19.4019L20.1667 25.5H15.0794C15.2676 24.1702 15.7942 22.9111 16.6087 21.8433C17.4233 20.7755 18.4984 19.9349 19.7312 19.4019Z" fill="black"/>
<path d="M10.689 33.999L12.189 36.249C12.2917 36.4031 12.4309 36.5295 12.5942 36.6169C12.7575 36.7042 12.9398 36.75 13.125 36.75H15.375C15.5602 36.75 15.7425 36.7042 15.9058 36.6169C16.0691 36.5295 16.2083 36.4031 16.311 36.249L17.4771 34.5H29.625C29.6723 34.4997 29.7195 34.4964 29.7664 34.4902L30.939 36.249C31.0417 36.4031 31.1809 36.5295 31.3442 36.6169C31.5075 36.7042 31.6898 36.75 31.875 36.75H34.125C34.4234 36.75 34.7095 36.6315 34.9205 36.4205C35.1315 36.2095 35.25 35.9234 35.25 35.625C35.25 35.3266 35.1315 35.0405 34.9205 34.8295C34.7095 34.6185 34.4234 34.5 34.125 34.5H32.4771L31.7271 33.375L32.4771 32.25H34.125C34.4234 32.25 34.7095 32.1315 34.9205 31.9205C35.1315 31.7095 35.25 31.4234 35.25 31.125C35.25 30.8266 35.1315 30.5405 34.9205 30.3295C34.7095 30.1185 34.4234 30 34.125 30H31.875C31.6898 30 31.5075 30.0457 31.3442 30.1331C31.1809 30.2205 31.0417 30.3469 30.939 30.501L29.7664 32.2598C29.7195 32.2536 29.6723 32.2503 29.625 32.25H17.4771L16.311 30.501C16.2083 30.3469 16.0691 30.2205 15.9058 30.1331C15.7425 30.0457 15.5602 30 15.375 30H13.125C12.9398 30 12.7575 30.0457 12.5942 30.1331C12.4309 30.2205 12.2917 30.3469 12.189 30.501L10.689 32.751C10.5658 32.9358 10.5001 33.1529 10.5001 33.375C10.5001 33.5971 10.5658 33.8142 10.689 33.999ZM13.7271 32.25H14.7729L15.5229 33.375L14.7729 34.5H13.7271L12.9771 33.375L13.7271 32.25Z" fill="black"/>
<path d="M32.5312 18.75H41.625C41.9234 18.75 42.2095 18.6315 42.4205 18.4205C42.6315 18.2095 42.75 17.9234 42.75 17.625C42.75 17.3266 42.6315 17.0405 42.4205 16.8295C42.2095 16.6185 41.9234 16.5 41.625 16.5H32.5312C32.2329 16.5 31.9467 16.6185 31.7358 16.8295C31.5248 17.0405 31.4062 17.3266 31.4062 17.625C31.4062 17.9234 31.5248 18.2095 31.7358 18.4205C31.9467 18.6315 32.2329 18.75 32.5312 18.75Z" fill="black"/>
<path d="M41.625 21H35.625C35.3266 21 35.0405 21.1185 34.8295 21.3295C34.6185 21.5405 34.5 21.8266 34.5 22.125C34.5 22.4234 34.6185 22.7095 34.8295 22.9205C35.0405 23.1315 35.3266 23.25 35.625 23.25H41.625C41.9234 23.25 42.2095 23.1315 42.4205 22.9205C42.6315 22.7095 42.75 22.4234 42.75 22.125C42.75 21.8266 42.6315 21.5405 42.4205 21.3295C42.2095 21.1185 41.9234 21 41.625 21Z" fill="black"/>
<path d="M41.625 25.5H37.875C37.5766 25.5 37.2905 25.6185 37.0795 25.8295C36.8685 26.0405 36.75 26.3266 36.75 26.625C36.75 26.9234 36.8685 27.2095 37.0795 27.4205C37.2905 27.6315 37.5766 27.75 37.875 27.75H41.625C41.9234 27.75 42.2095 27.6315 42.4205 27.4205C42.6315 27.2095 42.75 26.9234 42.75 26.625C42.75 26.3266 42.6315 26.0405 42.4205 25.8295C42.2095 25.6185 41.9234 25.5 41.625 25.5Z" fill="black"/>
</svg>
