<svg width="48" height="41" viewBox="0 0 48 41" fill="none" xmlns="http://www.w3.org/2000/svg">
<path d="M4.69576 15.6522H7.30445V4.69567C7.30445 2.10647 9.41092 0 12.0001 0H22.9297C26.4054 0 29.4998 2.3341 30.4547 5.6761L35.0939 21.9131H38.6089V1.56525C38.6089 0.700876 39.3096 0 40.1741 0C41.0386 0 41.7394 0.700783 41.7394 1.56525V34.4348H46.4349C47.2994 34.4348 48.0002 35.1357 48.0002 36.0001C48.0002 36.8644 47.2994 37.5653 46.4349 37.5653H40.174C39.3096 37.5653 38.6088 36.8645 38.6088 36.0001V31.3044H35.4784V34.4348C35.4784 37.8871 32.6697 40.6957 29.2174 40.6957C26.3055 40.6957 23.8515 38.6974 23.1547 36.0001H12.3236C11.6268 38.6974 9.17289 40.6957 6.26092 40.6957C2.80866 40.6957 -1.81899e-10 37.8871 -1.81899e-10 34.4348V20.3478C9.375e-05 17.7587 2.10657 15.6522 4.69576 15.6522ZM35.4784 28.174H38.6089V25.0436H35.4784V28.174ZM31.4614 20.5945L26.0871 17.0116V18.7828C26.0871 19.6471 25.3863 20.348 24.5219 20.348C23.6575 20.348 22.9566 19.6472 22.9566 18.7828C22.9566 18.0398 22.9566 11.7119 22.9566 10.9567C22.9566 10.0923 23.6574 9.39142 24.5219 9.39142C25.3862 9.39142 26.0871 10.0922 26.0871 10.9567V13.2495L30.1336 15.9473L27.4447 6.53636C26.8718 4.53113 25.0152 3.1306 22.9298 3.1306H12.0001C11.1371 3.1306 10.4349 3.83279 10.4349 4.69585V16.5693L13.5653 19.6997V10.9567C13.5653 10.0923 14.2661 9.39142 15.1305 9.39142C15.995 9.39142 16.6958 10.0922 16.6958 10.9567V21.9133H31.8381L31.4614 20.5945ZM26.0871 34.4362C26.0879 36.1617 27.4919 37.5653 29.2175 37.5653C30.9437 37.5653 32.3479 36.161 32.3479 34.4349C32.3479 32.7088 30.9437 31.3045 29.2175 31.3045C27.4919 31.3045 26.0879 32.7081 26.0871 34.4336C26.0871 34.434 26.0872 34.4345 26.0872 34.4349C26.0872 34.4353 26.0871 34.4358 26.0871 34.4362ZM6.26101 37.5653C7.98695 37.5653 9.39105 36.1613 9.39142 34.4355C9.39142 34.4353 9.39142 34.4351 9.39142 34.4348C9.39142 34.4345 9.39142 34.4344 9.39142 34.4342C9.39105 32.7083 7.98686 31.3043 6.26101 31.3043C4.53488 31.3043 3.1306 32.7086 3.1306 34.4347C3.1305 36.1609 4.53488 37.5653 6.26101 37.5653ZM3.1305 29.0162C4.05226 28.4817 5.12092 28.174 6.26092 28.174C9.17289 28.174 11.6269 30.1724 12.3236 32.8697H23.1548C23.8516 30.1724 26.3055 28.174 29.2175 28.174C30.3575 28.174 31.4263 28.4817 32.3479 29.0162V25.0435H15.1305C14.7282 25.0435 14.3229 24.8842 14.0235 24.5848L8.22133 18.7826H4.69576C3.83269 18.7826 3.1305 19.4848 3.1305 20.3478V29.0162Z" fill="black"/>
</svg>
