<svg width="102" height="150" viewBox="0 0 102 150" fill="none" xmlns="http://www.w3.org/2000/svg">
<path d="M61.2745 133.783C61.8625 133.314 62.4178 132.833 62.9274 132.318C61.9213 133.288 60.5885 134.343 58.8375 135.365C59.6869 134.909 60.5101 134.395 61.2745 133.79V133.783Z" fill="white"/>
<path d="M54.0485 137.488C55.6688 136.83 57.3022 136.186 58.8375 135.359C60.5885 134.336 61.9213 133.288 62.9274 132.312C64.5085 130.697 65.5866 128.783 65.58 126.231C65.5278 110.442 65.4951 94.6603 65.4886 78.8718C65.482 67.0744 65.5082 55.2771 65.5408 43.4732C65.5474 41.0577 64.6327 39.0459 63.032 37.301C61.2418 35.3478 59.0727 33.9285 56.6815 32.8151C51.2457 30.2695 45.4962 29.0194 39.5377 28.5441C32.168 27.9582 24.844 28.1665 17.6377 29.9114C13.0251 31.0312 8.54312 32.5287 4.6884 35.4324C1.75488 37.6396 -0.159412 40.3415 0.0104571 44.1438C0.0627246 45.3613 0.141126 46.5853 0.147659 47.8028C0.147659 68.1747 0.147659 88.5467 0.141126 108.919C0.141126 114.453 0.16726 119.987 0.128059 125.521C0.114992 127.683 0.513532 129.681 1.98355 131.335C2.61076 132.045 3.28371 132.735 4.01545 133.327C6.51776 135.359 9.45781 136.596 12.4632 137.637C19.2449 139.988 26.2683 140.88 33.3898 141.023C41.8114 140.834 48.09 139.656 52.7549 138.08C53.1861 137.937 53.5781 137.722 53.9832 137.52C54.0093 137.507 54.0354 137.494 54.0681 137.481L54.0485 137.488ZM3.53198 42.757C3.75412 41.2856 4.60346 40.1071 5.69455 39.1175C8.38632 36.676 11.6073 35.1915 15.0374 34.1368C22.7729 31.7474 30.6719 31.0247 38.7407 31.806C43.2226 32.2422 47.6327 32.9519 51.8925 34.4428C54.4993 35.3543 56.9559 36.5523 59.1315 38.2776C59.517 38.5836 59.909 38.8831 60.2357 39.2412C63.0058 42.2817 62.7184 44.7883 60.3402 47.2559C58.0535 49.6258 55.1657 50.9995 52.1015 52.0347C47.4693 53.6038 42.6869 54.4372 37.8129 54.7888C36.2122 54.9059 34.605 54.9515 33.1154 55.0231C25.6803 54.7757 18.4413 54.04 11.6138 51.1883C9.63421 50.3615 7.72644 49.2221 6.01468 47.9265C4.38786 46.7025 3.20531 44.9901 3.53851 42.7505L3.53198 42.757ZM22.2633 136.505C17.2979 135.749 12.4697 134.48 8.07272 131.947C7.0731 131.368 6.13229 130.638 5.28294 129.851C4.11345 128.757 3.48625 127.377 3.48625 125.723C3.48625 121.113 3.44704 116.504 3.42744 111.894C3.42744 111.627 3.46011 111.367 3.48625 110.976C4.08079 111.393 4.55773 111.764 5.07387 112.083C9.98701 115.175 15.3706 117.031 21.0481 118.131C27.072 119.303 33.1415 119.505 39.2503 119.381C42.1969 119.323 42.4843 118.991 42.4843 116.067C42.4843 102.343 42.5105 88.6183 42.5235 74.9003C42.5235 74.3013 42.5497 73.7023 42.5105 73.1099C42.4255 71.8989 41.8114 71.3455 40.5962 71.4106C39.3744 71.4757 38.1592 71.658 36.9374 71.6905C29.3979 71.8858 22.002 71.046 14.874 68.4742C11.6596 67.3153 8.65419 65.7593 6.00162 63.5782C5.77295 63.3894 5.53774 63.2006 5.31561 62.9987C4.09385 61.9049 3.35558 60.694 3.47971 58.9035C3.64305 56.5011 3.49931 54.0791 3.49278 51.6636C3.49278 51.2925 3.52545 50.9214 3.54505 50.4461C4.64266 51.1753 5.59001 51.8524 6.58309 52.4579C10.7122 54.9711 15.3052 56.1951 19.9962 57.0415C29.6657 58.7733 39.3352 58.7473 48.9067 56.3904C51.7095 55.7003 54.447 54.6585 57.1258 53.5582C58.6088 52.9462 59.909 51.8915 61.2876 51.0321C61.5097 50.8954 61.7057 50.7261 61.9148 50.5698C61.9932 50.5959 62.0781 50.6154 62.1565 50.6414C62.1565 51.1948 62.1565 51.7483 62.1565 52.3082C62.1696 71.2934 62.1892 90.2786 62.1957 109.264C62.1957 114.876 62.15 120.495 62.1565 126.107C62.1565 127.403 61.758 128.49 60.9021 129.44C58.7591 131.81 55.9955 133.178 53.0554 134.219C48.5212 135.827 43.8237 136.628 39.0281 137.051C33.4094 137.546 27.8233 137.344 22.2633 136.505ZM3.49278 105.416C3.51891 92.5638 3.51238 79.7052 3.51238 66.8531C3.51238 66.5666 3.54505 66.2736 3.56465 65.883C9.3206 70.5121 15.9128 72.7583 22.9298 74.0214C27.9866 74.9329 33.0892 75.1217 38.2115 74.9719C38.4793 74.9654 38.7472 74.9719 39.0869 74.9719C39.1196 75.2128 39.1653 75.4146 39.1653 75.623C39.1653 88.8006 39.1588 101.985 39.1653 115.162C39.1653 115.612 39.1 115.859 38.5643 115.879C30.1819 116.224 21.9236 115.54 13.9593 112.714C10.4574 111.471 7.1711 109.798 4.35519 107.311C3.76065 106.79 3.49278 106.23 3.49278 105.422V105.416Z" fill="white"/>
<path d="M7.99432 78.0775C8.64113 78.5203 9.32714 78.9109 10.0327 79.256C16.5008 82.4267 23.3936 83.8525 30.4497 84.2432C30.8679 84.2432 31.2403 84.3473 31.5082 84.2236C32.0439 83.9697 32.7103 83.6832 32.9455 83.221C33.135 82.8499 32.9063 82.1076 32.6188 81.6975C32.364 81.3394 31.7891 81.0659 31.3252 81.0073C29.1692 80.7404 26.9935 80.6232 24.844 80.3302C19.944 79.6596 15.2138 78.4096 10.8233 76.0462C10.3725 75.8053 9.90861 75.5579 9.43167 75.3821C8.51046 75.0435 7.73298 75.4277 7.25604 76.4173C6.85096 77.2572 7.43244 77.6934 7.98778 78.0775H7.99432Z" fill="white"/>
<path d="M7.85711 93.5795C8.39939 93.9376 8.9678 94.2761 9.56234 94.5236C11.4701 95.3113 13.3648 96.1317 15.3183 96.7893C20.0616 98.3909 24.9812 99.081 29.9532 99.4521C30.306 99.4717 30.6588 99.5173 31.0116 99.5107C32.0896 99.5107 32.9063 98.9052 33.0043 98.0719C33.0958 97.3036 32.2464 96.4182 31.2272 96.2814C30.2015 96.1512 29.1692 96.0731 28.1434 95.9754C22.3091 95.4416 16.6511 94.2241 11.3198 91.737C10.6796 91.4375 10.0523 91.1054 9.399 90.8515C8.51046 90.4999 7.57618 90.9296 7.07963 91.8542C6.75296 92.4662 6.9555 92.974 7.85711 93.5665V93.5795Z" fill="white"/>
<path d="M7.63498 85.7146C8.00085 86.0271 8.42552 86.3005 8.86326 86.5024C10.3464 87.1795 11.8229 87.8761 13.3387 88.4686C18.5981 90.539 24.1254 91.3724 29.9924 91.8997C30.4301 91.8737 31.1488 91.8997 31.8283 91.763C32.8018 91.5742 33.1872 90.6497 32.7952 89.7512C32.3836 88.8071 31.5278 88.729 30.6784 88.6769C23.6092 88.2147 16.8079 86.7107 10.3921 83.6311C9.93475 83.4098 9.43167 83.234 8.93513 83.1298C8.10538 82.954 7.59578 83.4619 7.24297 84.1194C6.90977 84.738 7.13844 85.2979 7.62844 85.7211L7.63498 85.7146Z" fill="white"/>
<path d="M22.4659 106.217C23.5178 106.197 24.0339 105.807 24.2299 105.038C24.4194 104.283 24.1515 103.652 23.4198 103.28C23.0147 103.072 22.5704 102.909 22.1261 102.818C17.8663 101.92 13.7111 100.709 9.77141 98.8206C9.51007 98.6969 9.203 98.6188 8.91553 98.5927C8.22952 98.5341 7.21684 99.2699 6.98817 99.986C6.72683 100.8 7.3083 101.177 7.86365 101.529C8.29485 101.803 8.75219 102.056 9.22914 102.252C12.7507 103.684 16.2918 105.038 20.0485 105.748C20.9305 105.917 21.806 106.087 22.4789 106.217H22.4659Z" fill="white"/>
<path d="M12.4305 47.7442C14.0835 49.2026 16.0174 50.1727 18.0885 50.8888C22.871 52.5426 27.8102 53.1285 32.854 53.0243C32.8606 53.1025 32.8671 53.1806 32.8736 53.2652C35.9248 52.9527 38.9955 52.7704 42.0204 52.3017C45.444 51.7743 48.7434 50.7391 51.7291 48.9161C56.3156 46.123 56.5312 41.2725 52.2257 38.0823C50.5074 36.8062 48.6062 35.8752 46.5612 35.2697C38.218 32.8151 29.7964 32.6589 21.3356 34.586C18.0819 35.3283 14.972 36.4807 12.4175 38.7334C9.49047 41.3116 9.51007 45.1724 12.4305 47.7442ZM15.168 40.8559C16.9517 39.417 19.0685 38.6162 21.2572 38.0367C27.7384 36.3049 34.2914 36.09 40.8902 37.3075C43.5427 37.7958 46.1561 38.4274 48.5212 39.7816C49.4098 40.2894 50.2656 40.9079 50.9843 41.6176C52.1865 42.8091 52.2191 44.0396 50.9321 45.1399C49.8344 46.0709 48.5604 46.8717 47.2341 47.4382C43.6734 48.9617 39.8775 49.4956 36.0358 49.743C34.9513 49.8146 33.8602 49.756 32.7756 49.756C28.0193 49.8276 23.3283 49.3002 18.8464 47.6335C17.5854 47.1647 16.3506 46.5202 15.266 45.7389C13.1884 44.2479 13.1884 42.464 15.1746 40.8624L15.168 40.8559Z" fill="white"/>
<path d="M22.2241 45.6933C22.7991 46.1621 23.4916 46.5462 24.1842 46.8262C26.8694 47.933 29.7115 48.1413 32.5796 48.1804C32.5927 48.252 32.5992 48.3301 32.6123 48.4017C34.997 48.0437 37.4078 47.8028 39.7468 47.2689C41.0012 46.9824 42.2687 46.3574 43.3075 45.5891C44.9344 44.3846 44.9605 42.464 43.4447 41.1163C42.7391 40.4847 41.844 39.9509 40.9424 39.6579C35.6765 37.9521 30.3517 37.9911 25.0531 39.4886C24.0339 39.7751 23.0082 40.2894 22.1849 40.947C20.5189 42.2817 20.5777 44.3391 22.2307 45.6933L22.2241 45.6933ZM26.1834 42.451C28.6726 41.839 31.2141 41.5134 33.7687 41.7022C35.6765 41.8455 37.5646 42.2557 39.4528 42.6007C39.8383 42.6723 40.1846 42.9653 40.5962 43.1802C38.1853 45.4199 27.1242 45.4329 24.6611 43.1476C25.2165 42.8872 25.6738 42.5747 26.1834 42.451Z" fill="white"/>
<path d="M25.6999 23.4072C25.6999 23.0361 25.7326 22.665 25.7522 22.1897C26.8498 22.9189 27.7972 23.596 28.7902 24.2015C32.9194 26.7146 37.5124 27.9386 42.2034 28.785C51.8729 30.5169 61.5424 30.4908 71.1138 28.1339C73.9167 27.4438 76.6542 26.4021 79.3329 25.3018C80.816 24.6898 82.1161 23.6351 83.4947 22.7756C83.7168 22.6389 83.9128 22.4696 84.1219 22.3134C84.2003 22.3394 84.2853 22.359 84.3637 22.385C84.3637 22.9384 84.3637 23.4918 84.3637 24.0517C84.3637 29.2212 84.3702 34.3907 84.3767 39.5602C85.4939 39.7165 86.6046 39.9053 87.7088 40.1462C87.7153 31.8385 87.7284 23.5309 87.7545 15.2232C87.761 12.8078 86.8398 10.796 85.2457 9.05109C83.4555 7.09788 81.2864 5.67854 78.8952 4.56521C73.4593 2.01953 67.7099 0.769476 61.7514 0.294195C54.3817 -0.291768 47.0577 -0.0834261 39.8513 1.66144C35.2387 2.78128 30.7568 4.27874 26.9021 7.18251C23.9751 9.38964 22.0608 12.0916 22.2241 15.8873C22.2764 17.1048 22.3613 18.3288 22.3613 19.5463C22.3613 22.8473 22.3613 26.1482 22.3613 29.4491C23.459 29.2994 24.6023 29.2017 25.7522 29.1431C25.7979 27.2355 25.7065 25.3213 25.6999 23.4072ZM25.7522 14.5005C25.9743 13.0291 26.8237 11.8507 27.9148 10.8611C30.6065 8.41955 33.8275 6.93511 37.2576 5.88037C44.9932 3.49095 52.8921 2.76826 60.9609 3.54954C65.4428 3.98576 69.8529 4.69543 74.1127 6.18638C76.7195 7.09788 79.1761 8.29584 81.3517 10.0212C81.7372 10.3272 82.1292 10.6267 82.4559 10.9848C85.2261 14.0253 84.9386 16.5319 82.5604 18.9994C80.2737 21.3693 77.3859 22.7431 74.3218 23.7783C69.6896 25.3474 64.9071 26.1807 60.0331 26.5323C58.4324 26.6495 56.8252 26.6951 55.3356 26.7667C47.9005 26.5193 40.6615 25.7836 33.8341 22.9319C31.8544 22.105 29.9467 20.9657 28.2349 19.67C26.6081 18.446 25.4255 16.7337 25.7587 14.494L25.7522 14.5005Z" fill="white"/>
<path d="M74.4459 9.81935C72.7276 8.54325 70.8264 7.61222 68.7814 7.00673C60.4382 4.55219 52.0166 4.39594 43.5558 6.3231C40.3022 7.06532 37.1922 8.21772 34.6377 10.4704C31.7107 13.0487 31.7303 16.9095 34.6507 19.4812C36.3037 20.9396 38.2376 21.9097 40.3087 22.6259C45.0912 24.2796 50.0304 24.8656 55.0743 24.7614C55.0808 24.8395 55.0873 24.9177 55.0939 25.0023C58.145 24.6898 61.2157 24.5075 64.2407 24.0387C67.6642 23.5113 70.9636 22.4761 73.9494 20.6532C78.5358 17.8601 78.7514 13.0096 74.4459 9.81935ZM73.1457 16.8769C72.0481 17.808 70.7741 18.6088 69.4478 19.1752C65.8871 20.6987 62.0912 21.2326 58.2495 21.48C57.165 21.5516 56.0739 21.493 54.9893 21.493C50.233 21.5646 45.542 21.0373 41.06 19.3705C39.7991 18.9018 38.5643 18.2572 37.4797 17.4759C35.4021 15.985 35.4021 14.201 37.3882 12.5994C39.1719 11.1606 41.2887 10.3597 43.4774 9.78028C49.9586 8.04844 56.5116 7.83358 63.1104 9.05109C65.763 9.53939 68.3763 10.1709 70.7414 11.5252C71.63 12.033 72.4859 12.6515 73.2045 13.3612C74.4067 14.5526 74.4394 15.7831 73.1523 16.8835L73.1457 16.8769Z" fill="white"/>
<path d="M65.6584 12.8598C64.9528 12.2283 64.0577 11.6944 63.1561 11.4014C57.8902 9.69564 52.5654 9.73471 47.2668 11.2322C46.2476 11.5186 45.2218 12.033 44.3986 12.6906C42.7326 14.0253 42.7914 16.0826 44.4444 17.4369C45.0193 17.9056 45.7118 18.2898 46.4044 18.5697C49.0896 19.6765 51.9317 19.8849 54.7998 19.924C54.8129 19.9956 54.8195 20.0737 54.8325 20.1453C57.2172 19.7872 59.6281 19.5463 61.967 19.0125C63.2214 18.726 64.4889 18.101 65.5278 17.3327C67.1546 16.1282 67.1807 14.2076 65.665 12.8598H65.6584ZM46.8748 14.8912C47.4301 14.6308 47.8875 14.3182 48.3971 14.1945C50.8863 13.5825 53.4278 13.257 55.9824 13.4458C57.8902 13.589 59.7783 13.9992 61.6665 14.3443C62.052 14.4159 62.3982 14.7089 62.8098 14.9237C60.399 17.1634 49.3379 17.1764 46.8748 14.8912Z" fill="white"/>
<path d="M97.6984 142.748C98.2864 142.28 98.8417 141.798 99.3514 141.283C98.3452 142.253 97.0124 143.308 95.2614 144.33C96.1108 143.875 96.934 143.36 97.6984 142.755V142.748Z" fill="white"/>
<path d="M75.6676 128.347C78.6142 128.288 78.9017 127.956 78.9017 125.033C78.9017 111.308 78.9278 97.5836 78.9409 83.8655C78.9409 83.2666 78.967 82.6676 78.9278 82.0751C78.8429 80.8641 78.2288 80.3107 77.0135 80.3758C75.7918 80.4409 74.5766 80.6232 73.3548 80.6558C70.2384 80.7339 67.1415 80.6362 64.0773 80.3107C64.0773 81.4175 64.0773 82.5178 64.0839 83.6246C67.5858 83.9697 71.1008 84.0348 74.6354 83.9306C74.9032 83.9241 75.1711 83.9306 75.5108 83.9306C75.5435 84.1715 75.5892 84.3734 75.5892 84.5817C75.5892 97.7594 75.5827 110.944 75.5892 124.121C75.5892 124.57 75.5239 124.818 74.9882 124.837C71.3425 124.987 67.723 124.942 64.1361 124.609C64.0381 125.853 63.6788 126.947 63.1169 127.923C67.2852 128.36 71.4732 128.438 75.6742 128.353L75.6676 128.347Z" fill="white"/>
<path d="M101.906 87.8436C101.899 76.0462 101.926 64.2488 101.958 52.4449C101.965 50.0294 101.05 48.0176 99.4494 46.2728C97.6592 44.3195 95.4901 42.9002 93.0989 41.7869C87.663 39.2412 81.9136 37.9911 75.9551 37.5159C71.7149 37.1773 67.4878 37.1187 63.2933 37.4442C63.7637 38.4339 64.0447 39.5016 64.1035 40.667C67.7557 40.3741 71.4405 40.4066 75.1646 40.7647C79.6465 41.2009 84.0566 41.9106 88.3164 43.4015C90.9232 44.313 93.3798 45.511 95.5554 47.2363C95.9409 47.5423 96.3329 47.8418 96.6596 48.1999C99.4298 51.2404 99.1423 53.747 96.7641 56.2146C94.4774 58.5845 91.5896 59.9582 88.5254 60.9934C83.8932 62.5625 79.1108 63.3959 74.2368 63.7475C72.6361 63.8647 71.0289 63.9102 69.5393 63.9819C67.7099 63.9233 65.8871 63.8321 64.0839 63.6824C64.0839 64.7827 64.0839 65.883 64.0839 66.9833C71.1922 67.5432 78.2876 67.0744 85.3241 65.3426C88.1269 64.6525 90.8644 63.6107 93.5431 62.5104C95.0262 61.8984 96.3264 60.8437 97.7049 59.9843C97.9271 59.8476 98.1231 59.6783 98.3321 59.522C98.4105 59.5481 98.4955 59.5676 98.5739 59.5936C98.5739 60.1471 98.5739 60.7005 98.5739 61.2604C98.5869 80.2456 98.6065 99.2308 98.6131 118.216C98.6131 123.828 98.5673 129.447 98.5739 135.059C98.5739 136.355 98.1753 137.442 97.3195 138.393C95.1765 140.763 92.4128 142.13 89.4728 143.171C84.9386 144.78 80.2411 145.58 75.4455 146.004C69.8268 146.498 64.2407 146.297 58.6807 145.457C53.7153 144.702 48.8871 143.432 44.4901 140.899C43.4905 140.32 42.5497 139.591 41.7003 138.803C41.439 138.562 41.2168 138.301 41.0078 138.035C39.8056 138.191 38.5381 138.321 37.2118 138.425C37.4928 139.083 37.8717 139.708 38.3879 140.287C39.0151 140.997 39.688 141.687 40.4198 142.28C42.9221 144.311 45.8621 145.548 48.8675 146.59C55.6492 148.94 62.6726 149.832 69.7941 149.975C78.2157 149.786 84.4943 148.608 89.1592 147.032C89.5904 146.889 89.9824 146.674 90.3875 146.472C90.4136 146.459 90.4397 146.446 90.4724 146.433C92.0927 145.776 93.7261 145.131 95.2614 144.304C97.0124 143.282 98.3452 142.234 99.3514 141.257C100.932 139.643 102.01 137.729 102.004 135.176C101.952 119.388 101.919 103.606 101.912 87.8175L101.906 87.8436Z" fill="white"/>
<path d="M66.8736 93.2149C67.2918 93.2149 67.6642 93.3191 67.9321 93.1954C68.4678 92.9414 69.1342 92.655 69.3694 92.1927C69.5589 91.8216 69.3302 91.0794 69.0427 90.6692C68.7879 90.3111 68.213 90.0377 67.7491 89.9791C66.5339 89.8293 65.3187 89.7252 64.1035 89.608C64.1035 90.7408 64.1035 91.8737 64.11 93C65.0312 93.0912 65.9524 93.1563 66.8802 93.2084L66.8736 93.2149Z" fill="white"/>
<path d="M66.3836 108.424C66.7364 108.443 67.0892 108.489 67.4421 108.482C68.5201 108.482 69.3367 107.877 69.4347 107.044C69.5262 106.275 68.6769 105.39 67.6577 105.253C66.6319 105.123 65.5996 105.045 64.5739 104.947C64.4236 104.934 64.2799 104.915 64.1296 104.902C64.1296 106.008 64.1296 107.115 64.1361 108.222C64.8875 108.294 65.6323 108.365 66.3836 108.417V108.424Z" fill="white"/>
<path d="M66.4098 100.865C66.8475 100.839 67.5662 100.865 68.2457 100.728C69.2191 100.539 69.6046 99.6149 69.2126 98.7164C68.801 97.7724 67.9451 97.6943 67.0958 97.6422C66.0962 97.5771 65.0965 97.4859 64.11 97.3817C64.11 98.469 64.11 99.5563 64.11 100.65C64.8679 100.735 65.6323 100.806 66.4032 100.878L66.4098 100.865Z" fill="white"/>
<path d="M69.2779 61.9896C69.2845 62.0677 69.291 62.1458 69.2975 62.2305C72.3487 61.918 75.4194 61.7357 78.4444 61.2669C81.8679 60.7395 85.1673 59.7043 88.153 57.8813C92.7395 55.0882 92.9551 50.2378 88.6496 47.0475C86.9313 45.7714 85.0301 44.8404 82.9851 44.2349C76.7326 42.3989 70.4409 41.8455 64.1165 42.4965C64.1165 43.5969 64.1165 44.6972 64.11 45.7975C68.4874 45.3027 72.8844 45.4589 77.3141 46.2728C79.9666 46.7611 82.58 47.3926 84.9451 48.7468C85.8337 49.2546 86.6895 49.8732 87.4082 50.5828C88.6104 51.7743 88.6431 53.0048 87.356 54.1051C86.2584 55.0362 84.9843 55.837 83.658 56.4034C80.0973 57.9269 76.3014 58.4608 72.4597 58.7082C71.3752 58.7798 70.2841 58.7212 69.1995 58.7212C67.4812 58.7472 65.776 58.6887 64.0839 58.5389C64.0839 59.6392 64.0839 60.7395 64.0839 61.8398C65.8022 61.9831 67.5401 62.0352 69.2845 62.0026L69.2779 61.9896Z" fill="white"/>
<path d="M69.0297 57.367C71.4144 57.0089 73.8252 56.768 76.1642 56.2341C77.4186 55.9477 78.6861 55.3226 79.7249 54.5544C81.3517 53.3499 81.3779 51.4292 79.8621 50.0815C79.1565 49.45 78.2614 48.9161 77.3598 48.6231C72.9628 47.1973 68.5331 46.9954 64.1035 47.8353C64.1035 48.9226 64.1035 50.0034 64.0969 51.0907C66.1027 50.7 68.1411 50.5177 70.1861 50.6675C72.0939 50.8107 73.982 51.2209 75.8702 51.5659C76.2557 51.6376 76.6019 51.9305 77.0135 52.1454C75.1776 53.8447 68.3437 54.2614 64.0904 53.3629C64.0904 54.4958 64.0904 55.6286 64.0839 56.768C65.6976 57.0415 67.344 57.1261 68.997 57.1456C69.0101 57.2172 69.0166 57.2954 69.0297 57.367Z" fill="white"/>
</svg>
