<svg width="104" height="129" viewBox="0 0 104 129" fill="none" xmlns="http://www.w3.org/2000/svg">
<path d="M100 39.8389C100 30.8644 99.9958 24.3329 99.3311 19.3438C98.6737 14.4103 97.4034 11.2857 95.0879 8.94922C92.7748 6.61523 89.6855 5.33695 84.8047 4.67481C79.8645 4.00464 73.3957 4 64.5 4H39.5C30.6043 4 24.1355 4.00464 19.1953 4.67481C14.3145 5.33695 11.2252 6.61523 8.91211 8.94922C6.59663 11.2857 5.32629 14.4103 4.66895 19.3438C4.00423 24.3329 4 30.8644 4 39.8389V106.036C4 110.823 4.00466 114.198 4.3418 116.622C4.67902 119.046 5.27925 119.942 5.96973 120.387C7.31272 121.252 9.35605 120.964 12.1943 119.479C13.522 118.785 14.8459 117.92 16.1006 117.058C17.3021 116.232 18.5414 115.334 19.501 114.729C21.1098 113.714 22.4253 112.895 23.582 112.352C24.7952 111.782 25.9538 111.456 27.2686 111.499C28.501 111.54 29.5924 111.916 30.707 112.475C31.7835 113.014 33.0166 113.794 34.499 114.729L46.4414 122.261C48.0874 123.299 49.1943 123.993 50.1084 124.444C50.9805 124.875 51.5195 125 52 125C52.4805 125 53.0195 124.875 53.8916 124.444C54.8057 123.993 55.9126 123.299 57.5586 122.261L69.501 114.729C71.1098 113.714 72.4253 112.895 73.582 112.352C74.7952 111.782 75.9538 111.456 77.2686 111.499C78.501 111.54 79.5924 111.916 80.707 112.475C81.7835 113.014 83.0166 113.794 84.499 114.729C85.4586 115.334 86.6979 116.232 87.8994 117.058C89.1541 117.92 90.478 118.785 91.8057 119.479C94.644 120.964 96.6873 121.252 98.0303 120.387C98.7208 119.942 99.321 119.046 99.6582 116.622C99.9953 114.198 100 110.823 100 106.036V39.8389ZM65.625 89.5V85.8711C61.6742 85.2409 58.3274 82.774 56.9287 79.3115C56.5151 78.2874 57.0102 77.1217 58.0342 76.708C59.0583 76.2943 60.224 76.7893 60.6377 77.8135C61.5821 80.1514 64.2543 82.0312 67.625 82.0312C71.9573 82.0312 75 79.0115 75 75.8281C75 72.6447 71.9573 69.625 67.625 69.625C61.602 69.625 56.25 65.2994 56.25 59.4219C56.25 54.2055 60.466 50.2134 65.625 49.3809V45.75C65.625 44.6454 66.5204 43.75 67.625 43.75C68.7296 43.75 69.625 44.6454 69.625 45.75V49.3779C73.5759 50.0081 76.9226 52.4759 78.3213 55.9385C78.7349 56.9626 78.2398 58.1283 77.2158 58.542C76.1917 58.9557 75.026 58.4607 74.6123 57.4365C73.6679 55.0986 70.9957 53.2188 67.625 53.2188C63.2927 53.2188 60.25 56.2385 60.25 59.4219C60.25 62.6053 63.2927 65.625 67.625 65.625C73.648 65.625 79 69.9506 79 75.8281C79 81.0445 74.7839 85.0356 69.625 85.8682V89.5C69.625 90.6046 68.7296 91.5 67.625 91.5C66.5204 91.5 65.625 90.6046 65.625 89.5ZM39.5 50C40.6046 50 41.5 50.8954 41.5 52C41.5 53.1046 40.6046 54 39.5 54H27C25.8954 54 25 53.1046 25 52C25 50.8954 25.8954 50 27 50H39.5ZM77 25C78.1046 25 79 25.8954 79 27C79 28.1046 78.1046 29 77 29H27C25.8954 29 25 28.1046 25 27C25 25.8954 25.8954 25 27 25H77ZM104 106.036C104 110.697 104.005 114.408 103.62 117.173C103.236 119.937 102.392 122.334 100.195 123.749C96.8201 125.923 92.8565 124.543 89.9512 123.023C88.4072 122.216 86.9257 121.243 85.6338 120.354C84.2885 119.43 83.2398 118.664 82.3652 118.112C80.8166 117.136 79.7756 116.482 78.916 116.052C78.0947 115.64 77.5872 115.512 77.1377 115.497C76.6351 115.481 76.1134 115.582 75.2822 115.973C74.3945 116.389 73.3012 117.061 71.6348 118.112L59.6914 125.644C58.1159 126.637 56.806 127.466 55.6611 128.031C54.4744 128.617 53.3119 129 52 129C50.6881 129 49.5257 128.617 48.3389 128.031C47.194 127.466 45.8841 126.637 44.3086 125.644L32.3652 118.112C30.8166 117.136 29.7756 116.482 28.916 116.052C28.0947 115.64 27.5872 115.512 27.1377 115.497C26.6351 115.481 26.1134 115.582 25.2822 115.973C24.3945 116.389 23.3012 117.061 21.6348 118.112C20.7602 118.664 19.7115 119.43 18.3662 120.354C17.0743 121.243 15.5928 122.216 14.0488 123.023C11.1435 124.543 7.17989 125.923 3.80469 123.749C1.60803 122.334 0.764446 119.937 0.379886 117.173C-0.00473046 114.408 2.73119e-06 110.697 2.73119e-06 106.036V39.8389C2.64983e-06 30.9765 -0.00400597 24.1302 0.704104 18.8154C1.41968 13.4449 2.89512 9.33871 6.07129 6.13379C9.24995 2.92638 13.3263 1.43415 18.6572 0.710938C23.9288 -0.0042156 30.7182 5.72587e-07 39.5 5.72587e-07H64.5C73.2818 5.72587e-07 80.0712 -0.0042156 85.3428 0.710938C90.6737 1.43415 94.75 2.92638 97.9287 6.13379C101.105 9.33871 102.58 13.4449 103.296 18.8154C104.004 24.1302 104 30.9765 104 39.8389V106.036Z" fill="white"/>
</svg>
